<svg id="Layer_1" data-name="Layer 1" xmlns="http://www.w3.org/2000/svg" viewBox="0 0 384 383.96"><defs><style>.cls-1{fill:#fff;}</style></defs><title>houses</title><path class="cls-1" d="M342.75,239.25v103.5h-384V239.25H42.48V234.3c0-36.48.12-73-.09-109.44,0-4.75,1.31-7.68,5.14-10.52C58.25,106.41,68.6,98,79.43,89.5L44.57,62.23.75,96.48V65.38H-21.61v4.31c0,13.74,0,27.48-.05,41.23,0,1.35-.33,3.23-1.24,4-6,4.84-12.21,9.44-18.35,14.12V-41.21h384V129c-.93-.6-1.91-1.13-2.78-1.81q-22.74-17.76-45.44-35.56L257,62.24,222.14,89.49c11.41,9,22.44,17.73,33.64,26.29a7.59,7.59,0,0,1,3.31,6.86C259,160,259,197.35,259,234.7v4.55Zm-106.47-.17c.11-.82.21-1.19.21-1.56,0-35.24.07-70.49-.05-105.73a6.8,6.8,0,0,0-2.58-4.44q-34.43-27.16-69-54.13c-4.69-3.67-9.41-7.31-14-10.88-.67.43-1,.61-1.3.84Q108.36,95.39,67.26,127.7a7.19,7.19,0,0,0-2.19,5q-.19,51.18-.11,102.35c0,1.32.12,2.64.19,4h45V176.29h81.41v62.79ZM132.78,198.7V239h35.94V198.7Z" transform="translate(41.25 41.21)"/><path d="M-41.25,129c6.14-4.68,12.35-9.28,18.35-14.12.91-.73,1.23-2.61,1.24-4,.09-13.75.05-27.49.05-41.23V65.38H.75v31.1L44.57,62.23,79.43,89.5C68.6,98,58.25,106.41,47.53,114.34c-3.83,2.84-5.16,5.77-5.14,10.52.21,36.48.1,73,.09,109.44v4.95H-41.25Zm53,45.89h-22v33.2h22Z" transform="translate(41.25 41.21)"/><path d="M342.75,239.25H259V234.7c0-37.35,0-74.71.07-112.06a7.59,7.59,0,0,0-3.31-6.86c-11.2-8.56-22.23-17.34-33.64-26.29L257,62.24l37.58,29.39q22.71,17.79,45.44,35.56c.87.68,1.85,1.21,2.78,1.81ZM289.88,174.8v33.35h22V174.8Z" transform="translate(41.25 41.21)"/><path d="M236.28,239.08H191.55V176.29H110.14v62.78h-45c-.07-1.37-.19-2.69-.19-4q0-51.18.11-102.35a7.19,7.19,0,0,1,2.19-5q41-32.39,82.29-64.52c.29-.23.63-.41,1.3-.84,4.6,3.57,9.32,7.21,14,10.88q34.53,27,69,54.13a6.8,6.8,0,0,1,2.58,4.44c.12,35.24.07,70.49.05,105.73C236.49,237.89,236.39,238.26,236.28,239.08Z" transform="translate(41.25 41.21)"/><path d="M132.78,198.7h35.94V239H132.78Z" transform="translate(41.25 41.21)"/><path class="cls-1" d="M11.7,174.89v33.2h-22v-33.2Z" transform="translate(41.25 41.21)"/><path class="cls-1" d="M289.88,174.8h22v33.35h-22Z" transform="translate(41.25 41.21)"/></svg>